<mxfile host="app.diagrams.net" agent="Mozilla/5.0 (Windows NT 10.0; Win64; x64) AppleWebKit/537.36 (KHTML, like Gecko) Chrome/128.0.0.0 Safari/537.36" version="24.7.12">
  <diagram name="Page-1" id="xX63njBD4jovFuj5_9Rz">
    <mxGraphModel dx="2765" dy="1040" grid="1" gridSize="10" guides="1" tooltips="1" connect="1" arrows="1" fold="1" page="1" pageScale="1" pageWidth="850" pageHeight="1100" math="0" shadow="0">
      <root>
        <mxCell id="0" />
        <mxCell id="1" parent="0" />
        <mxCell id="szYzNGDYwFDyFf7zRYBR-62" value="Vehicle" style="html=1;overflow=block;blockSpacing=1;whiteSpace=wrap;fontSize=12;fontFamily=Verdana;spacing=9;strokeColor=#000000;rounded=1;absoluteArcSize=1;arcSize=9;fillColor=#FFFFFF;strokeWidth=NaN;lucidId=BtZ-Y207U4pc;" parent="1" vertex="1">
          <mxGeometry x="510" y="480" width="120" height="86" as="geometry" />
        </mxCell>
        <mxCell id="szYzNGDYwFDyFf7zRYBR-63" value="Vehicle Identification Number (VIN)" style="html=1;overflow=block;blockSpacing=1;whiteSpace=wrap;ellipse;fontSize=12;fontFamily=Verdana;fontStyle=4;spacing=3.8;strokeColor=#000000;rounded=1;absoluteArcSize=1;arcSize=9;fillColor=#FFFFFF;strokeWidth=NaN;lucidId=DuZ-Zantp_dl;" parent="1" vertex="1">
          <mxGeometry x="90" y="240" width="165" height="70" as="geometry" />
        </mxCell>
        <mxCell id="szYzNGDYwFDyFf7zRYBR-64" value="" style="html=1;jettySize=18;whiteSpace=wrap;fontSize=12;strokeColor=#000000;strokeOpacity=100;strokeWidth=0.8;rounded=0;startArrow=none;endArrow=none;exitX=-0.006;exitY=0.5;exitPerimeter=0;entryX=1.005;entryY=0.5;entryPerimeter=0;lucidId=WvZ-a0lMNG1S;fillColor=#FFFFFF;fontFamily=Verdana;" parent="1" source="szYzNGDYwFDyFf7zRYBR-62" target="szYzNGDYwFDyFf7zRYBR-63" edge="1">
          <mxGeometry width="100" height="100" relative="1" as="geometry">
            <Array as="points" />
          </mxGeometry>
        </mxCell>
        <mxCell id="szYzNGDYwFDyFf7zRYBR-65" value="Vehicle Type" style="html=1;overflow=block;blockSpacing=1;whiteSpace=wrap;ellipse;fontSize=12;fontFamily=Verdana;spacing=3.8;strokeColor=#000000;rounded=1;absoluteArcSize=1;arcSize=9;fillColor=#FFFFFF;strokeWidth=NaN;lucidId=6vZ-L7gLNPIc;" parent="1" vertex="1">
          <mxGeometry x="90" y="330" width="165" height="60" as="geometry" />
        </mxCell>
        <mxCell id="szYzNGDYwFDyFf7zRYBR-66" value="Manufacturer" style="html=1;overflow=block;blockSpacing=1;whiteSpace=wrap;ellipse;fontSize=12;fontFamily=Verdana;spacing=3.8;strokeColor=#000000;rounded=1;absoluteArcSize=1;arcSize=9;fillColor=#FFFFFF;strokeWidth=NaN;lucidId=nwZ-oiYA15Ep;" parent="1" vertex="1">
          <mxGeometry x="90" y="410" width="165" height="60" as="geometry" />
        </mxCell>
        <mxCell id="szYzNGDYwFDyFf7zRYBR-67" value="Model Name" style="html=1;overflow=block;blockSpacing=1;whiteSpace=wrap;ellipse;fontSize=12;fontFamily=Verdana;spacing=3.8;strokeColor=#000000;rounded=1;absoluteArcSize=1;arcSize=9;fillColor=#FFFFFF;strokeWidth=NaN;lucidId=DwZ-kUlp-qQv;" parent="1" vertex="1">
          <mxGeometry x="90" y="491" width="165" height="60" as="geometry" />
        </mxCell>
        <mxCell id="szYzNGDYwFDyFf7zRYBR-68" value="Vehicle Model Year" style="html=1;overflow=block;blockSpacing=1;whiteSpace=wrap;ellipse;fontSize=12;fontFamily=Verdana;spacing=3.8;strokeColor=#000000;rounded=1;absoluteArcSize=1;arcSize=9;fillColor=#FFFFFF;strokeWidth=NaN;lucidId=4wZ-v24CShQW;" parent="1" vertex="1">
          <mxGeometry x="90" y="571" width="165" height="60" as="geometry" />
        </mxCell>
        <mxCell id="szYzNGDYwFDyFf7zRYBR-69" value="Fuel Type" style="html=1;overflow=block;blockSpacing=1;whiteSpace=wrap;ellipse;fontSize=12;fontFamily=Verdana;spacing=3.8;strokeColor=#000000;rounded=1;absoluteArcSize=1;arcSize=9;fillColor=#FFFFFF;strokeWidth=NaN;lucidId=CxZ-8sgC-Nf-;" parent="1" vertex="1">
          <mxGeometry x="90" y="652" width="165" height="60" as="geometry" />
        </mxCell>
        <mxCell id="szYzNGDYwFDyFf7zRYBR-70" value="Horse Power" style="html=1;overflow=block;blockSpacing=1;whiteSpace=wrap;ellipse;fontSize=12;fontFamily=Verdana;spacing=3.8;strokeColor=#000000;rounded=1;absoluteArcSize=1;arcSize=9;fillColor=#FFFFFF;strokeWidth=NaN;lucidId=syZ-fJtZK4Bh;" parent="1" vertex="1">
          <mxGeometry x="90" y="813" width="165" height="60" as="geometry" />
        </mxCell>
        <mxCell id="szYzNGDYwFDyFf7zRYBR-71" value="Description" style="html=1;overflow=block;blockSpacing=1;whiteSpace=wrap;ellipse;fontSize=12;fontFamily=Verdana;spacing=3.8;strokeColor=#000000;rounded=1;absoluteArcSize=1;arcSize=9;fillColor=#FFFFFF;strokeWidth=NaN;lucidId=GyZ-moyf~d34;" parent="1" vertex="1">
          <mxGeometry x="90" y="893" width="165" height="60" as="geometry" />
        </mxCell>
        <mxCell id="szYzNGDYwFDyFf7zRYBR-73" value="" style="html=1;jettySize=18;whiteSpace=wrap;fontSize=12;strokeColor=#000000;strokeOpacity=100;strokeWidth=0.8;rounded=0;startArrow=none;endArrow=none;exitX=-0.006;exitY=0.5;exitPerimeter=0;entryX=1.005;entryY=0.5;entryPerimeter=0;lucidId=wzZ-4iujSXsG;fillColor=#FFFFFF;fontFamily=Verdana;" parent="1" source="szYzNGDYwFDyFf7zRYBR-62" target="szYzNGDYwFDyFf7zRYBR-65" edge="1">
          <mxGeometry width="100" height="100" relative="1" as="geometry">
            <Array as="points" />
          </mxGeometry>
        </mxCell>
        <mxCell id="szYzNGDYwFDyFf7zRYBR-74" value="" style="html=1;jettySize=18;whiteSpace=wrap;fontSize=12;strokeColor=#000000;strokeOpacity=100;strokeWidth=0.8;rounded=0;startArrow=none;endArrow=none;exitX=-0.006;exitY=0.5;exitPerimeter=0;entryX=1.005;entryY=0.5;entryPerimeter=0;lucidId=CzZ-dexgTeSU;fillColor=#FFFFFF;fontFamily=Verdana;" parent="1" source="szYzNGDYwFDyFf7zRYBR-62" target="szYzNGDYwFDyFf7zRYBR-66" edge="1">
          <mxGeometry width="100" height="100" relative="1" as="geometry">
            <Array as="points" />
          </mxGeometry>
        </mxCell>
        <mxCell id="szYzNGDYwFDyFf7zRYBR-75" value="" style="html=1;jettySize=18;whiteSpace=wrap;fontSize=12;strokeColor=#000000;strokeOpacity=100;strokeWidth=0.8;rounded=0;startArrow=none;endArrow=none;exitX=-0.006;exitY=0.5;exitPerimeter=0;entryX=1.005;entryY=0.5;entryPerimeter=0;lucidId=FzZ-dZ.L~GkR;fillColor=#FFFFFF;fontFamily=Verdana;" parent="1" source="szYzNGDYwFDyFf7zRYBR-62" target="szYzNGDYwFDyFf7zRYBR-67" edge="1">
          <mxGeometry width="100" height="100" relative="1" as="geometry">
            <Array as="points" />
          </mxGeometry>
        </mxCell>
        <mxCell id="szYzNGDYwFDyFf7zRYBR-76" value="" style="html=1;jettySize=18;whiteSpace=wrap;fontSize=12;strokeColor=#000000;strokeOpacity=100;strokeWidth=0.8;rounded=0;startArrow=none;endArrow=none;exitX=-0.006;exitY=0.5;exitPerimeter=0;entryX=1.005;entryY=0.5;entryPerimeter=0;lucidId=JzZ-uzUrRPps;fillColor=#FFFFFF;fontFamily=Verdana;" parent="1" source="szYzNGDYwFDyFf7zRYBR-62" target="szYzNGDYwFDyFf7zRYBR-68" edge="1">
          <mxGeometry width="100" height="100" relative="1" as="geometry">
            <Array as="points" />
          </mxGeometry>
        </mxCell>
        <mxCell id="szYzNGDYwFDyFf7zRYBR-77" value="" style="html=1;jettySize=18;whiteSpace=wrap;fontSize=12;strokeColor=#000000;strokeOpacity=100;strokeWidth=0.8;rounded=0;startArrow=none;endArrow=none;exitX=-0.006;exitY=0.5;exitPerimeter=0;entryX=1.005;entryY=0.5;entryPerimeter=0;lucidId=MzZ-uXeH00f0;fillColor=#FFFFFF;fontFamily=Verdana;" parent="1" source="szYzNGDYwFDyFf7zRYBR-62" target="szYzNGDYwFDyFf7zRYBR-69" edge="1">
          <mxGeometry width="100" height="100" relative="1" as="geometry">
            <Array as="points" />
          </mxGeometry>
        </mxCell>
        <mxCell id="szYzNGDYwFDyFf7zRYBR-78" value="" style="html=1;jettySize=18;whiteSpace=wrap;fontSize=12;strokeColor=#000000;strokeOpacity=100;strokeWidth=0.8;rounded=0;startArrow=none;endArrow=none;exitX=-0.006;exitY=0.5;exitPerimeter=0;entryX=1;entryY=0.5;lucidId=QzZ-.Q8H2IzH;fillColor=#FFFFFF;entryDx=0;entryDy=0;fontFamily=Verdana;" parent="1" source="szYzNGDYwFDyFf7zRYBR-62" target="szYzNGDYwFDyFf7zRYBR-123" edge="1">
          <mxGeometry width="100" height="100" relative="1" as="geometry">
            <Array as="points" />
            <mxPoint x="255.82499999999982" y="763.5" as="targetPoint" />
          </mxGeometry>
        </mxCell>
        <mxCell id="szYzNGDYwFDyFf7zRYBR-79" value="" style="html=1;jettySize=18;whiteSpace=wrap;fontSize=12;strokeColor=#000000;strokeOpacity=100;strokeWidth=0.8;rounded=0;startArrow=none;endArrow=none;exitX=-0.006;exitY=0.5;exitPerimeter=0;entryX=1.005;entryY=0.5;entryPerimeter=0;lucidId=UzZ-U-2fWmdR;fillColor=#FFFFFF;fontFamily=Verdana;" parent="1" source="szYzNGDYwFDyFf7zRYBR-62" target="szYzNGDYwFDyFf7zRYBR-70" edge="1">
          <mxGeometry width="100" height="100" relative="1" as="geometry">
            <Array as="points" />
          </mxGeometry>
        </mxCell>
        <mxCell id="szYzNGDYwFDyFf7zRYBR-80" value="" style="html=1;jettySize=18;whiteSpace=wrap;fontSize=12;strokeColor=#000000;strokeOpacity=100;strokeWidth=0.8;rounded=0;startArrow=none;endArrow=none;exitX=-0.006;exitY=0.5;exitPerimeter=0;entryX=1.005;entryY=0.5;entryPerimeter=0;lucidId=YzZ-DtX43Od4;fillColor=#FFFFFF;fontFamily=Verdana;" parent="1" source="szYzNGDYwFDyFf7zRYBR-62" target="szYzNGDYwFDyFf7zRYBR-71" edge="1">
          <mxGeometry width="100" height="100" relative="1" as="geometry">
            <Array as="points" />
          </mxGeometry>
        </mxCell>
        <mxCell id="szYzNGDYwFDyFf7zRYBR-81" value="Customer" style="html=1;overflow=block;blockSpacing=1;whiteSpace=wrap;fontSize=12;fontFamily=Verdana;spacing=3.8;strokeColor=#000000;rounded=1;absoluteArcSize=1;arcSize=9;fillColor=#FFFFFF;strokeWidth=NaN;lucidId=rDZ-6jWZNiMs;" parent="1" vertex="1">
          <mxGeometry x="945" y="478" width="120" height="90" as="geometry" />
        </mxCell>
        <mxCell id="szYzNGDYwFDyFf7zRYBR-82" value="Sell/Buy?" style="html=1;overflow=block;blockSpacing=1;whiteSpace=wrap;shape=rhombus;fontSize=12;fontFamily=Verdana;spacing=3.8;strokeColor=#000000;rounded=1;absoluteArcSize=1;arcSize=9;fillColor=#FFFFFF;strokeWidth=NaN;lucidId=5DZ--~_ptVdY;" parent="1" vertex="1">
          <mxGeometry x="728" y="470" width="120" height="105" as="geometry" />
        </mxCell>
        <mxCell id="szYzNGDYwFDyFf7zRYBR-83" value="" style="html=1;jettySize=18;whiteSpace=wrap;fontSize=12;strokeColor=#000000;strokeOpacity=100;strokeWidth=0.8;rounded=0;startArrow=none;endArrow=none;exitX=1.006;exitY=0.5;exitPerimeter=0;entryX=0.011;entryY=0.5;entryPerimeter=0;lucidId=HEZ-00MyV2H9;fillColor=#FFFFFF;fontFamily=Verdana;" parent="1" source="szYzNGDYwFDyFf7zRYBR-62" target="szYzNGDYwFDyFf7zRYBR-82" edge="1">
          <mxGeometry width="100" height="100" relative="1" as="geometry">
            <Array as="points" />
          </mxGeometry>
        </mxCell>
        <mxCell id="szYzNGDYwFDyFf7zRYBR-84" value="" style="html=1;jettySize=18;whiteSpace=wrap;fontSize=12;strokeColor=#000000;strokeOpacity=100;strokeWidth=0.8;rounded=0;startArrow=none;endArrow=none;exitX=0.989;exitY=0.5;exitPerimeter=0;entryX=-0.006;entryY=0.5;entryPerimeter=0;lucidId=JEZ-Q9gGHq-2;fillColor=#FFFFFF;fontFamily=Verdana;" parent="1" source="szYzNGDYwFDyFf7zRYBR-82" target="szYzNGDYwFDyFf7zRYBR-81" edge="1">
          <mxGeometry width="100" height="100" relative="1" as="geometry">
            <Array as="points" />
          </mxGeometry>
        </mxCell>
        <mxCell id="szYzNGDYwFDyFf7zRYBR-85" value="Parts Order" style="html=1;overflow=block;blockSpacing=1;whiteSpace=wrap;fontSize=12;fontFamily=Verdana;spacing=3.8;strokeColor=#000000;rounded=1;absoluteArcSize=1;arcSize=9;fillColor=#FFFFFF;strokeWidth=NaN;lucidId=EFZ-UOy5dAtP;" parent="1" vertex="1">
          <mxGeometry x="510" y="795" width="120" height="90" as="geometry" />
        </mxCell>
        <mxCell id="szYzNGDYwFDyFf7zRYBR-86" value="Contains" style="html=1;overflow=block;blockSpacing=1;whiteSpace=wrap;shape=rhombus;fontSize=12;fontFamily=Verdana;spacing=3.8;strokeColor=#000000;rounded=1;absoluteArcSize=1;arcSize=9;fillColor=#FFFFFF;strokeWidth=NaN;lucidId=aGZ-tf66PgoM;" parent="1" vertex="1">
          <mxGeometry x="510" y="631" width="120" height="105" as="geometry" />
        </mxCell>
        <mxCell id="szYzNGDYwFDyFf7zRYBR-87" value="" style="html=1;jettySize=18;whiteSpace=wrap;fontSize=12;strokeColor=#000000;strokeOpacity=100;strokeWidth=0.8;rounded=0;startArrow=none;endArrow=none;exitX=0.5;exitY=1.009;exitPerimeter=0;entryX=0.5;entryY=0.009;entryPerimeter=0;lucidId=gGZ-.HCsMsn1;fillColor=#FFFFFF;fontFamily=Verdana;" parent="1" source="szYzNGDYwFDyFf7zRYBR-62" target="szYzNGDYwFDyFf7zRYBR-86" edge="1">
          <mxGeometry width="100" height="100" relative="1" as="geometry">
            <Array as="points" />
          </mxGeometry>
        </mxCell>
        <mxCell id="szYzNGDYwFDyFf7zRYBR-88" value="" style="html=1;jettySize=18;whiteSpace=wrap;fontSize=12;strokeColor=#000000;strokeOpacity=100;strokeWidth=0.8;rounded=0;startArrow=none;endArrow=none;exitX=0.5;exitY=0.991;exitPerimeter=0;entryX=0.5;entryY=-0.008;entryPerimeter=0;lucidId=iGZ-apuS8zrZ;fillColor=#FFFFFF;fontFamily=Verdana;" parent="1" source="szYzNGDYwFDyFf7zRYBR-86" target="szYzNGDYwFDyFf7zRYBR-85" edge="1">
          <mxGeometry width="100" height="100" relative="1" as="geometry">
            <Array as="points" />
          </mxGeometry>
        </mxCell>
        <mxCell id="szYzNGDYwFDyFf7zRYBR-89" value="Individual Person" style="html=1;overflow=block;blockSpacing=1;whiteSpace=wrap;fontSize=12;fontFamily=Verdana;spacing=3.8;strokeColor=#000000;rounded=1;absoluteArcSize=1;arcSize=9;fillColor=#FFFFFF;strokeWidth=NaN;lucidId=ZIZ-vnLUh--B;" parent="1" vertex="1">
          <mxGeometry x="1421" y="457" width="120" height="39" as="geometry" />
        </mxCell>
        <mxCell id="szYzNGDYwFDyFf7zRYBR-90" value="Business" style="html=1;overflow=block;blockSpacing=1;whiteSpace=wrap;fontSize=12;fontFamily=Verdana;spacing=3.8;strokeColor=#000000;rounded=1;absoluteArcSize=1;arcSize=9;fillColor=#FFFFFF;strokeWidth=NaN;lucidId=6IZ-2k-u3jrZ;" parent="1" vertex="1">
          <mxGeometry x="1421" y="576" width="120" height="30" as="geometry" />
        </mxCell>
        <mxCell id="szYzNGDYwFDyFf7zRYBR-91" value="d" style="html=1;overflow=block;blockSpacing=1;whiteSpace=wrap;ellipse;fontSize=12;spacing=3.8;strokeColor=#000000;rounded=1;absoluteArcSize=1;arcSize=9;fillColor=#FFFFFF;strokeWidth=NaN;lucidId=oKZ-xKYlmdNb;fontFamily=Verdana;" parent="1" vertex="1">
          <mxGeometry x="1155" y="506" width="30" height="30" as="geometry" />
        </mxCell>
        <mxCell id="szYzNGDYwFDyFf7zRYBR-92" value="" style="html=1;jettySize=18;whiteSpace=wrap;fontSize=12;strokeColor=#000000;strokeOpacity=100;strokeWidth=0.8;rounded=0;startArrow=none;endArrow=none;exitX=1.006;exitY=0.5;exitPerimeter=0;entryX=-0.018;entryY=0.567;entryPerimeter=0;lucidId=wLZ-E-8P8NgJ;fillColor=#FFFFFF;fontFamily=Verdana;" parent="1" source="szYzNGDYwFDyFf7zRYBR-81" target="szYzNGDYwFDyFf7zRYBR-91" edge="1">
          <mxGeometry width="100" height="100" relative="1" as="geometry">
            <Array as="points" />
          </mxGeometry>
        </mxCell>
        <mxCell id="szYzNGDYwFDyFf7zRYBR-93" value="" style="html=1;jettySize=18;whiteSpace=wrap;fontSize=12;strokeColor=#000000;strokeOpacity=100;strokeWidth=0.8;rounded=0;startArrow=none;endArrow=none;exitX=-0.006;exitY=0.5;exitPerimeter=0;entryX=1.025;entryY=0.5;entryPerimeter=0;lucidId=ELZ-y6GXX~zE;fillColor=#FFFFFF;fontFamily=Verdana;" parent="1" source="szYzNGDYwFDyFf7zRYBR-89" target="szYzNGDYwFDyFf7zRYBR-91" edge="1">
          <mxGeometry width="100" height="100" relative="1" as="geometry">
            <Array as="points" />
          </mxGeometry>
        </mxCell>
        <mxCell id="szYzNGDYwFDyFf7zRYBR-94" value="" style="html=1;jettySize=18;whiteSpace=wrap;fontSize=12;strokeColor=#000000;strokeOpacity=100;strokeWidth=0.8;rounded=0;startArrow=none;endArrow=none;exitX=-0.006;exitY=0.5;exitPerimeter=0;entryX=1.025;entryY=0.5;entryPerimeter=0;lucidId=GLZ-._BRmPSE;fillColor=#FFFFFF;fontFamily=Verdana;" parent="1" source="szYzNGDYwFDyFf7zRYBR-90" target="szYzNGDYwFDyFf7zRYBR-91" edge="1">
          <mxGeometry width="100" height="100" relative="1" as="geometry">
            <Array as="points" />
          </mxGeometry>
        </mxCell>
        <mxCell id="szYzNGDYwFDyFf7zRYBR-95" value="" style="html=1;jettySize=18;whiteSpace=wrap;fontSize=12;strokeColor=#000000;strokeOpacity=100;strokeWidth=0.8;rounded=0;startArrow=none;endArrow=none;lucidId=jMZ-lMutQh6V;fillColor=#FFFFFF;fontFamily=Verdana;" parent="1" edge="1">
          <mxGeometry width="100" height="100" relative="1" as="geometry">
            <Array as="points" />
            <mxPoint x="1247" y="584" as="sourcePoint" />
            <mxPoint x="1248" y="584" as="targetPoint" />
          </mxGeometry>
        </mxCell>
        <mxCell id="szYzNGDYwFDyFf7zRYBR-96" value="Address" style="html=1;overflow=block;blockSpacing=1;whiteSpace=wrap;ellipse;fontSize=12;fontFamily=Verdana;spacing=3.8;strokeColor=#000000;rounded=1;absoluteArcSize=1;arcSize=9;fillColor=#FFFFFF;strokeWidth=NaN;lucidId=xOZ-vr2RvBZR;" parent="1" vertex="1">
          <mxGeometry x="795" y="383" width="120" height="45" as="geometry" />
        </mxCell>
        <mxCell id="szYzNGDYwFDyFf7zRYBR-97" value="Phone" style="html=1;overflow=block;blockSpacing=1;whiteSpace=wrap;ellipse;fontSize=12;fontFamily=Verdana;spacing=3.8;strokeColor=#000000;rounded=1;absoluteArcSize=1;arcSize=9;fillColor=#FFFFFF;strokeWidth=NaN;lucidId=OPZ-7m3Xf9H2;" parent="1" vertex="1">
          <mxGeometry x="945" y="383" width="120" height="45" as="geometry" />
        </mxCell>
        <mxCell id="szYzNGDYwFDyFf7zRYBR-98" value="Email Address" style="html=1;overflow=block;blockSpacing=1;whiteSpace=wrap;ellipse;fontSize=12;fontFamily=Verdana;spacing=3.8;strokeColor=#000000;rounded=1;absoluteArcSize=1;arcSize=9;fillColor=#FFFFFF;strokeWidth=NaN;lucidId=-PZ-vWLsKAXU;" parent="1" vertex="1">
          <mxGeometry x="1095" y="383" width="120" height="45" as="geometry" />
        </mxCell>
        <mxCell id="szYzNGDYwFDyFf7zRYBR-99" value="" style="html=1;jettySize=18;whiteSpace=wrap;fontSize=12;strokeColor=#000000;strokeOpacity=100;strokeWidth=0.8;rounded=0;startArrow=none;endArrow=none;exitX=0.5;exitY=1.017;exitPerimeter=0;entryX=0.5;entryY=-0.008;entryPerimeter=0;lucidId=pQZ-bhVIYCJ_;fillColor=#FFFFFF;fontFamily=Verdana;" parent="1" source="szYzNGDYwFDyFf7zRYBR-96" target="szYzNGDYwFDyFf7zRYBR-81" edge="1">
          <mxGeometry width="100" height="100" relative="1" as="geometry">
            <Array as="points" />
          </mxGeometry>
        </mxCell>
        <mxCell id="szYzNGDYwFDyFf7zRYBR-100" value="" style="html=1;jettySize=18;whiteSpace=wrap;fontSize=12;strokeColor=#000000;strokeOpacity=100;strokeWidth=0.8;rounded=0;startArrow=none;endArrow=none;exitX=0.5;exitY=1.017;exitPerimeter=0;entryX=0.5;entryY=-0.008;entryPerimeter=0;lucidId=sQZ-.VrL~915;fillColor=#FFFFFF;fontFamily=Verdana;" parent="1" source="szYzNGDYwFDyFf7zRYBR-97" target="szYzNGDYwFDyFf7zRYBR-81" edge="1">
          <mxGeometry width="100" height="100" relative="1" as="geometry">
            <Array as="points" />
          </mxGeometry>
        </mxCell>
        <mxCell id="szYzNGDYwFDyFf7zRYBR-101" value="" style="html=1;jettySize=18;whiteSpace=wrap;fontSize=12;strokeColor=#000000;strokeOpacity=100;strokeWidth=0.8;rounded=0;startArrow=none;endArrow=none;exitX=0.5;exitY=1.013;exitPerimeter=0;entryX=0.5;entryY=-0.008;entryPerimeter=0;lucidId=vQZ-07eiusA_;fillColor=#FFFFFF;fontFamily=Verdana;" parent="1" source="szYzNGDYwFDyFf7zRYBR-98" target="szYzNGDYwFDyFf7zRYBR-81" edge="1">
          <mxGeometry width="100" height="100" relative="1" as="geometry">
            <Array as="points" />
          </mxGeometry>
        </mxCell>
        <mxCell id="szYzNGDYwFDyFf7zRYBR-102" value="Name" style="html=1;overflow=block;blockSpacing=1;whiteSpace=wrap;ellipse;fontSize=12;fontFamily=Verdana;spacing=3.8;strokeColor=#000000;rounded=1;absoluteArcSize=1;arcSize=9;fillColor=#FFFFFF;strokeWidth=NaN;lucidId=GQZ-Ua-Q53T5;" parent="1" vertex="1">
          <mxGeometry x="1361" y="379" width="120" height="37" as="geometry" />
        </mxCell>
        <mxCell id="szYzNGDYwFDyFf7zRYBR-103" value="First Name" style="html=1;overflow=block;blockSpacing=1;whiteSpace=wrap;ellipse;fontSize=12;fontFamily=Verdana;spacing=3.8;strokeColor=#000000;rounded=1;absoluteArcSize=1;arcSize=9;fillColor=#FFFFFF;strokeWidth=NaN;lucidId=8QZ-jW6W2il9;" parent="1" vertex="1">
          <mxGeometry x="1301" y="296" width="120" height="45" as="geometry" />
        </mxCell>
        <mxCell id="szYzNGDYwFDyFf7zRYBR-104" value="Last Name" style="html=1;overflow=block;blockSpacing=1;whiteSpace=wrap;ellipse;fontSize=12;fontFamily=Verdana;spacing=3.8;strokeColor=#000000;rounded=1;absoluteArcSize=1;arcSize=9;fillColor=#FFFFFF;strokeWidth=NaN;lucidId=.QZ-A.G0ojLZ;" parent="1" vertex="1">
          <mxGeometry x="1436" y="296" width="120" height="45" as="geometry" />
        </mxCell>
        <mxCell id="szYzNGDYwFDyFf7zRYBR-105" value="" style="html=1;jettySize=18;whiteSpace=wrap;fontSize=12;strokeColor=#000000;strokeOpacity=100;strokeWidth=0.8;rounded=0;startArrow=none;endArrow=none;exitX=0.5;exitY=-0.02;exitPerimeter=0;entryX=0.5;entryY=1.017;entryPerimeter=0;lucidId=xRZ-PG_PeNv_;fillColor=#FFFFFF;fontFamily=Verdana;" parent="1" source="szYzNGDYwFDyFf7zRYBR-102" target="szYzNGDYwFDyFf7zRYBR-103" edge="1">
          <mxGeometry width="100" height="100" relative="1" as="geometry">
            <Array as="points" />
          </mxGeometry>
        </mxCell>
        <mxCell id="szYzNGDYwFDyFf7zRYBR-106" value="" style="html=1;jettySize=18;whiteSpace=wrap;fontSize=12;strokeColor=#000000;strokeOpacity=100;strokeWidth=0.8;rounded=0;startArrow=none;endArrow=none;exitX=0.5;exitY=-0.02;exitPerimeter=0;entryX=0.5;entryY=1.017;entryPerimeter=0;lucidId=ARZ-yJeNCCf6;fillColor=#FFFFFF;fontFamily=Verdana;" parent="1" source="szYzNGDYwFDyFf7zRYBR-102" target="szYzNGDYwFDyFf7zRYBR-104" edge="1">
          <mxGeometry width="100" height="100" relative="1" as="geometry">
            <Array as="points" />
          </mxGeometry>
        </mxCell>
        <mxCell id="szYzNGDYwFDyFf7zRYBR-107" value="" style="html=1;jettySize=18;whiteSpace=wrap;fontSize=12;strokeColor=#000000;strokeOpacity=100;strokeWidth=0.8;rounded=0;startArrow=none;endArrow=none;exitX=0.5;exitY=1.02;exitPerimeter=0;entryX=0.5;entryY=-0.008;entryPerimeter=0;lucidId=ERZ-EnkDwrBc;fillColor=#FFFFFF;fontFamily=Verdana;" parent="1" source="szYzNGDYwFDyFf7zRYBR-102" target="szYzNGDYwFDyFf7zRYBR-89" edge="1">
          <mxGeometry width="100" height="100" relative="1" as="geometry">
            <Array as="points" />
          </mxGeometry>
        </mxCell>
        <mxCell id="szYzNGDYwFDyFf7zRYBR-108" value="Social  Security Number" style="html=1;overflow=block;blockSpacing=1;whiteSpace=wrap;ellipse;fontSize=12;fontFamily=Verdana;fontStyle=4;spacing=3.8;strokeColor=#000000;rounded=1;absoluteArcSize=1;arcSize=9;fillColor=#FFFFFF;strokeWidth=NaN;lucidId=IRZ-5GLHNOML;" parent="1" vertex="1">
          <mxGeometry x="1511" y="356" width="150" height="63" as="geometry" />
        </mxCell>
        <mxCell id="szYzNGDYwFDyFf7zRYBR-109" value="" style="html=1;jettySize=18;whiteSpace=wrap;fontSize=12;strokeColor=#000000;strokeOpacity=100;strokeWidth=0.8;rounded=0;startArrow=none;endArrow=none;exitX=0.5;exitY=-0.008;exitPerimeter=0;entryX=0.564;entryY=1.007;entryPerimeter=0;lucidId=5SZ-tf670jsa;fillColor=#FFFFFF;fontFamily=Verdana;" parent="1" source="szYzNGDYwFDyFf7zRYBR-89" target="szYzNGDYwFDyFf7zRYBR-108" edge="1">
          <mxGeometry width="100" height="100" relative="1" as="geometry">
            <Array as="points" />
          </mxGeometry>
        </mxCell>
        <mxCell id="szYzNGDYwFDyFf7zRYBR-110" value="Business Name" style="html=1;overflow=block;blockSpacing=1;whiteSpace=wrap;ellipse;fontSize=12;fontFamily=Verdana;spacing=3.8;strokeColor=#000000;rounded=1;absoluteArcSize=1;arcSize=9;fillColor=#FFFFFF;strokeWidth=NaN;lucidId=JTZ-zntRh-D0;" parent="1" vertex="1">
          <mxGeometry x="1256" y="650" width="120" height="63" as="geometry" />
        </mxCell>
        <mxCell id="szYzNGDYwFDyFf7zRYBR-111" value="Primary Contact" style="html=1;overflow=block;blockSpacing=1;whiteSpace=wrap;ellipse;fontSize=12;fontFamily=Verdana;spacing=3.8;strokeColor=#000000;rounded=1;absoluteArcSize=1;arcSize=9;fillColor=#FFFFFF;strokeWidth=NaN;lucidId=9TZ-SED_v-Ht;" parent="1" vertex="1">
          <mxGeometry x="1421" y="650" width="120" height="63" as="geometry" />
        </mxCell>
        <mxCell id="szYzNGDYwFDyFf7zRYBR-112" value="First Name" style="html=1;overflow=block;blockSpacing=1;whiteSpace=wrap;ellipse;fontSize=12;fontFamily=Verdana;spacing=3.8;strokeColor=#000000;rounded=1;absoluteArcSize=1;arcSize=9;fillColor=#FFFFFF;strokeWidth=NaN;lucidId=NUZ-anbusIxe;" parent="1" vertex="1">
          <mxGeometry x="1421" y="742" width="120" height="45" as="geometry" />
        </mxCell>
        <mxCell id="szYzNGDYwFDyFf7zRYBR-113" value="Last Name" style="html=1;overflow=block;blockSpacing=1;whiteSpace=wrap;ellipse;fontSize=12;fontFamily=Verdana;spacing=3.8;strokeColor=#000000;rounded=1;absoluteArcSize=1;arcSize=9;fillColor=#FFFFFF;strokeWidth=NaN;lucidId=NUZ-fSgM48iG;" parent="1" vertex="1">
          <mxGeometry x="1556" y="742" width="120" height="45" as="geometry" />
        </mxCell>
        <mxCell id="szYzNGDYwFDyFf7zRYBR-114" value="Tax Identification Number" style="html=1;overflow=block;blockSpacing=1;whiteSpace=wrap;ellipse;fontSize=12;fontFamily=Verdana;fontStyle=4;spacing=3.8;strokeColor=#000000;rounded=1;absoluteArcSize=1;arcSize=9;fillColor=#FFFFFF;strokeWidth=NaN;lucidId=2UZ-N4oYDekU;" parent="1" vertex="1">
          <mxGeometry x="1579" y="650" width="195" height="63" as="geometry" />
        </mxCell>
        <mxCell id="szYzNGDYwFDyFf7zRYBR-115" value="Title" style="html=1;overflow=block;blockSpacing=1;whiteSpace=wrap;ellipse;fontSize=12;fontFamily=Verdana;spacing=3.8;strokeColor=#000000;rounded=1;absoluteArcSize=1;arcSize=9;fillColor=#FFFFFF;strokeWidth=NaN;lucidId=DWZ-z6.XnGRC;" parent="1" vertex="1">
          <mxGeometry x="1286" y="742" width="120" height="45" as="geometry" />
        </mxCell>
        <mxCell id="szYzNGDYwFDyFf7zRYBR-116" value="" style="html=1;jettySize=18;whiteSpace=wrap;fontSize=12;strokeColor=#000000;strokeOpacity=100;strokeWidth=0.8;rounded=0;startArrow=none;endArrow=none;exitX=0.5;exitY=1.008;exitPerimeter=0;entryX=0.5;entryY=-0.012;entryPerimeter=0;lucidId=3WZ-s96eNQJq;fillColor=#FFFFFF;fontFamily=Verdana;" parent="1" source="szYzNGDYwFDyFf7zRYBR-90" target="szYzNGDYwFDyFf7zRYBR-110" edge="1">
          <mxGeometry width="100" height="100" relative="1" as="geometry">
            <Array as="points" />
          </mxGeometry>
        </mxCell>
        <mxCell id="szYzNGDYwFDyFf7zRYBR-117" value="" style="html=1;jettySize=18;whiteSpace=wrap;fontSize=12;strokeColor=#000000;strokeOpacity=100;strokeWidth=0.8;rounded=0;startArrow=none;endArrow=none;exitX=0.5;exitY=1.008;exitPerimeter=0;entryX=0.5;entryY=-0.012;entryPerimeter=0;lucidId=8WZ-L2xA0.AT;fillColor=#FFFFFF;fontFamily=Verdana;" parent="1" source="szYzNGDYwFDyFf7zRYBR-90" target="szYzNGDYwFDyFf7zRYBR-111" edge="1">
          <mxGeometry width="100" height="100" relative="1" as="geometry">
            <Array as="points" />
          </mxGeometry>
        </mxCell>
        <mxCell id="szYzNGDYwFDyFf7zRYBR-118" value="" style="html=1;jettySize=18;whiteSpace=wrap;fontSize=12;strokeColor=#000000;strokeOpacity=100;strokeWidth=0.8;rounded=0;startArrow=none;endArrow=none;exitX=0.5;exitY=1.008;exitPerimeter=0;entryX=0.5;entryY=-0.012;entryPerimeter=0;lucidId=-WZ-XoeuXKm.;fillColor=#FFFFFF;fontFamily=Verdana;" parent="1" source="szYzNGDYwFDyFf7zRYBR-90" target="szYzNGDYwFDyFf7zRYBR-114" edge="1">
          <mxGeometry width="100" height="100" relative="1" as="geometry">
            <Array as="points" />
          </mxGeometry>
        </mxCell>
        <mxCell id="szYzNGDYwFDyFf7zRYBR-119" value="" style="html=1;jettySize=18;whiteSpace=wrap;fontSize=12;strokeColor=#000000;strokeOpacity=100;strokeWidth=0.8;rounded=0;startArrow=none;endArrow=none;exitX=0.5;exitY=1.012;exitPerimeter=0;entryX=0.5;entryY=-0.017;entryPerimeter=0;lucidId=aXZ-eDSB~pTY;fillColor=#FFFFFF;fontFamily=Verdana;" parent="1" source="szYzNGDYwFDyFf7zRYBR-111" target="szYzNGDYwFDyFf7zRYBR-115" edge="1">
          <mxGeometry width="100" height="100" relative="1" as="geometry">
            <Array as="points" />
          </mxGeometry>
        </mxCell>
        <mxCell id="szYzNGDYwFDyFf7zRYBR-120" value="" style="html=1;jettySize=18;whiteSpace=wrap;fontSize=12;strokeColor=#000000;strokeOpacity=100;strokeWidth=0.8;rounded=0;startArrow=none;endArrow=none;exitX=0.5;exitY=1.012;exitPerimeter=0;entryX=0.5;entryY=-0.017;entryPerimeter=0;lucidId=gXZ-QNIgbbm~;fillColor=#FFFFFF;fontFamily=Verdana;" parent="1" source="szYzNGDYwFDyFf7zRYBR-111" target="szYzNGDYwFDyFf7zRYBR-112" edge="1">
          <mxGeometry width="100" height="100" relative="1" as="geometry">
            <Array as="points" />
          </mxGeometry>
        </mxCell>
        <mxCell id="szYzNGDYwFDyFf7zRYBR-121" value="" style="html=1;jettySize=18;whiteSpace=wrap;fontSize=12;strokeColor=#000000;strokeOpacity=100;strokeWidth=0.8;rounded=0;startArrow=none;endArrow=none;exitX=0.5;exitY=1.012;exitPerimeter=0;entryX=0.5;entryY=-0.017;entryPerimeter=0;lucidId=kXZ-eXNNSjwa;fillColor=#FFFFFF;fontFamily=Verdana;" parent="1" source="szYzNGDYwFDyFf7zRYBR-111" target="szYzNGDYwFDyFf7zRYBR-113" edge="1">
          <mxGeometry width="100" height="100" relative="1" as="geometry">
            <Array as="points" />
          </mxGeometry>
        </mxCell>
        <mxCell id="szYzNGDYwFDyFf7zRYBR-123" value="&lt;font style=&quot;font-size: 12px;&quot;&gt;Color&lt;/font&gt;" style="ellipse;shape=doubleEllipse;margin=3;whiteSpace=wrap;html=1;align=center;fontFamily=Verdana;fontSize=12;" parent="1" vertex="1">
          <mxGeometry x="90" y="736" width="160" height="64" as="geometry" />
        </mxCell>
        <mxCell id="szYzNGDYwFDyFf7zRYBR-124" value="d" style="html=1;overflow=block;blockSpacing=1;whiteSpace=wrap;ellipse;fontSize=12;spacing=3.8;strokeColor=#000000;rounded=1;absoluteArcSize=1;arcSize=9;fillColor=#FFFFFF;strokeWidth=NaN;lucidId=oKZ-xKYlmdNb;fontFamily=Verdana;" parent="1" vertex="1">
          <mxGeometry x="990" y="622" width="30" height="30" as="geometry" />
        </mxCell>
        <mxCell id="szYzNGDYwFDyFf7zRYBR-125" value="Seller" style="html=1;overflow=block;blockSpacing=1;whiteSpace=wrap;fontSize=12;fontFamily=Verdana;spacing=3.8;strokeColor=#000000;rounded=1;absoluteArcSize=1;arcSize=9;fillColor=#FFFFFF;strokeWidth=NaN;lucidId=ZIZ-vnLUh--B;" parent="1" vertex="1">
          <mxGeometry x="840" y="710" width="120" height="40" as="geometry" />
        </mxCell>
        <mxCell id="szYzNGDYwFDyFf7zRYBR-126" value="Buyer" style="html=1;overflow=block;blockSpacing=1;whiteSpace=wrap;fontSize=12;fontFamily=Verdana;spacing=3.8;strokeColor=#000000;rounded=1;absoluteArcSize=1;arcSize=9;fillColor=#FFFFFF;strokeWidth=NaN;lucidId=ZIZ-vnLUh--B;" parent="1" vertex="1">
          <mxGeometry x="1063" y="710" width="120" height="40" as="geometry" />
        </mxCell>
        <mxCell id="szYzNGDYwFDyFf7zRYBR-130" value="" style="endArrow=none;html=1;rounded=0;entryX=0.5;entryY=1;entryDx=0;entryDy=0;exitX=0.5;exitY=0;exitDx=0;exitDy=0;" parent="1" source="szYzNGDYwFDyFf7zRYBR-124" target="szYzNGDYwFDyFf7zRYBR-81" edge="1">
          <mxGeometry width="50" height="50" relative="1" as="geometry">
            <mxPoint x="970" y="730" as="sourcePoint" />
            <mxPoint x="1020" y="680" as="targetPoint" />
          </mxGeometry>
        </mxCell>
        <mxCell id="szYzNGDYwFDyFf7zRYBR-131" value="" style="endArrow=none;html=1;rounded=0;entryX=0.5;entryY=1;entryDx=0;entryDy=0;exitX=0.5;exitY=0;exitDx=0;exitDy=0;" parent="1" source="szYzNGDYwFDyFf7zRYBR-125" target="szYzNGDYwFDyFf7zRYBR-124" edge="1">
          <mxGeometry width="50" height="50" relative="1" as="geometry">
            <mxPoint x="970" y="730" as="sourcePoint" />
            <mxPoint x="1020" y="680" as="targetPoint" />
          </mxGeometry>
        </mxCell>
        <mxCell id="szYzNGDYwFDyFf7zRYBR-133" value="" style="endArrow=none;html=1;rounded=0;entryX=0.5;entryY=1;entryDx=0;entryDy=0;exitX=0.5;exitY=0;exitDx=0;exitDy=0;" parent="1" source="szYzNGDYwFDyFf7zRYBR-126" target="szYzNGDYwFDyFf7zRYBR-124" edge="1">
          <mxGeometry width="50" height="50" relative="1" as="geometry">
            <mxPoint x="970" y="730" as="sourcePoint" />
            <mxPoint x="1020" y="680" as="targetPoint" />
          </mxGeometry>
        </mxCell>
        <mxCell id="OwlcNEEsp9JzeRuenH69-1" value="Contains" style="html=1;overflow=block;blockSpacing=1;whiteSpace=wrap;shape=rhombus;fontSize=12;fontFamily=Verdana;spacing=3.8;strokeColor=#000000;rounded=1;absoluteArcSize=1;arcSize=9;fillColor=#FFFFFF;strokeWidth=NaN;lucidId=aGZ-tf66PgoM;" vertex="1" parent="1">
          <mxGeometry x="510" y="941" width="120" height="105" as="geometry" />
        </mxCell>
        <mxCell id="OwlcNEEsp9JzeRuenH69-2" value="Parts" style="html=1;overflow=block;blockSpacing=1;whiteSpace=wrap;fontSize=12;fontFamily=Verdana;spacing=3.8;strokeColor=#000000;rounded=1;absoluteArcSize=1;arcSize=9;fillColor=#FFFFFF;strokeWidth=NaN;lucidId=EFZ-UOy5dAtP;" vertex="1" parent="1">
          <mxGeometry x="510" y="1100" width="120" height="90" as="geometry" />
        </mxCell>
        <mxCell id="OwlcNEEsp9JzeRuenH69-4" value="" style="endArrow=none;html=1;rounded=0;entryX=0.5;entryY=1;entryDx=0;entryDy=0;" edge="1" parent="1" source="OwlcNEEsp9JzeRuenH69-1" target="szYzNGDYwFDyFf7zRYBR-85">
          <mxGeometry width="50" height="50" relative="1" as="geometry">
            <mxPoint x="520" y="990" as="sourcePoint" />
            <mxPoint x="570" y="940" as="targetPoint" />
          </mxGeometry>
        </mxCell>
        <mxCell id="OwlcNEEsp9JzeRuenH69-5" value="" style="endArrow=none;html=1;rounded=0;entryX=0.5;entryY=1;entryDx=0;entryDy=0;exitX=0.5;exitY=0;exitDx=0;exitDy=0;" edge="1" parent="1" source="OwlcNEEsp9JzeRuenH69-2" target="OwlcNEEsp9JzeRuenH69-1">
          <mxGeometry width="50" height="50" relative="1" as="geometry">
            <mxPoint x="520" y="990" as="sourcePoint" />
            <mxPoint x="570" y="940" as="targetPoint" />
          </mxGeometry>
        </mxCell>
        <mxCell id="OwlcNEEsp9JzeRuenH69-6" value="&lt;u&gt;Parts Order Number&lt;/u&gt;" style="html=1;overflow=block;blockSpacing=1;whiteSpace=wrap;ellipse;fontSize=12;fontFamily=Verdana;spacing=3.8;strokeColor=#000000;rounded=1;absoluteArcSize=1;arcSize=9;fillColor=#FFFFFF;strokeWidth=NaN;lucidId=GyZ-moyf~d34;" vertex="1" parent="1">
          <mxGeometry x="350" y="809.5" width="110" height="60" as="geometry" />
        </mxCell>
        <mxCell id="OwlcNEEsp9JzeRuenH69-9" value="Name" style="html=1;overflow=block;blockSpacing=1;whiteSpace=wrap;ellipse;fontSize=12;fontFamily=Verdana;spacing=3.8;strokeColor=#000000;rounded=1;absoluteArcSize=1;arcSize=9;fillColor=#FFFFFF;strokeWidth=NaN;lucidId=syZ-fJtZK4Bh;" vertex="1" parent="1">
          <mxGeometry x="1020" y="775" width="130" height="35" as="geometry" />
        </mxCell>
        <mxCell id="OwlcNEEsp9JzeRuenH69-10" value="Address" style="html=1;overflow=block;blockSpacing=1;whiteSpace=wrap;ellipse;fontSize=12;fontFamily=Verdana;spacing=3.8;strokeColor=#000000;rounded=1;absoluteArcSize=1;arcSize=9;fillColor=#FFFFFF;strokeWidth=NaN;lucidId=syZ-fJtZK4Bh;" vertex="1" parent="1">
          <mxGeometry x="1020" y="825" width="130" height="30" as="geometry" />
        </mxCell>
        <mxCell id="OwlcNEEsp9JzeRuenH69-11" value="Phone Number" style="html=1;overflow=block;blockSpacing=1;whiteSpace=wrap;ellipse;fontSize=12;fontFamily=Verdana;spacing=3.8;strokeColor=#000000;rounded=1;absoluteArcSize=1;arcSize=9;fillColor=#FFFFFF;strokeWidth=NaN;lucidId=syZ-fJtZK4Bh;" vertex="1" parent="1">
          <mxGeometry x="1025" y="870" width="125" height="34" as="geometry" />
        </mxCell>
        <mxCell id="OwlcNEEsp9JzeRuenH69-12" value="Vendor" style="html=1;overflow=block;blockSpacing=1;whiteSpace=wrap;fontSize=12;fontFamily=Verdana;spacing=3.8;strokeColor=#000000;rounded=1;absoluteArcSize=1;arcSize=9;fillColor=#FFFFFF;strokeWidth=NaN;lucidId=EFZ-UOy5dAtP;" vertex="1" parent="1">
          <mxGeometry x="840" y="795" width="120" height="90" as="geometry" />
        </mxCell>
        <mxCell id="OwlcNEEsp9JzeRuenH69-13" value="Order From" style="html=1;overflow=block;blockSpacing=1;whiteSpace=wrap;shape=rhombus;fontSize=12;fontFamily=Verdana;spacing=3.8;strokeColor=#000000;rounded=1;absoluteArcSize=1;arcSize=9;fillColor=#FFFFFF;strokeWidth=NaN;lucidId=aGZ-tf66PgoM;" vertex="1" parent="1">
          <mxGeometry x="670" y="787" width="120" height="105" as="geometry" />
        </mxCell>
        <mxCell id="OwlcNEEsp9JzeRuenH69-14" value="" style="endArrow=none;html=1;rounded=0;entryX=0;entryY=0.5;entryDx=0;entryDy=0;exitX=1;exitY=0.5;exitDx=0;exitDy=0;" edge="1" parent="1" source="OwlcNEEsp9JzeRuenH69-13" target="OwlcNEEsp9JzeRuenH69-12">
          <mxGeometry width="50" height="50" relative="1" as="geometry">
            <mxPoint x="770" y="935" as="sourcePoint" />
            <mxPoint x="820" y="885" as="targetPoint" />
          </mxGeometry>
        </mxCell>
        <mxCell id="OwlcNEEsp9JzeRuenH69-16" value="" style="endArrow=none;html=1;rounded=0;exitX=1;exitY=0.5;exitDx=0;exitDy=0;entryX=0;entryY=0.5;entryDx=0;entryDy=0;" edge="1" parent="1" source="szYzNGDYwFDyFf7zRYBR-85" target="OwlcNEEsp9JzeRuenH69-13">
          <mxGeometry width="50" height="50" relative="1" as="geometry">
            <mxPoint x="1020" y="1030" as="sourcePoint" />
            <mxPoint x="1070" y="980" as="targetPoint" />
          </mxGeometry>
        </mxCell>
        <mxCell id="OwlcNEEsp9JzeRuenH69-17" value="" style="endArrow=none;html=1;rounded=0;exitX=1;exitY=0.5;exitDx=0;exitDy=0;entryX=0;entryY=0.5;entryDx=0;entryDy=0;" edge="1" parent="1" source="OwlcNEEsp9JzeRuenH69-12" target="OwlcNEEsp9JzeRuenH69-11">
          <mxGeometry width="50" height="50" relative="1" as="geometry">
            <mxPoint x="1020" y="1030" as="sourcePoint" />
            <mxPoint x="1070" y="980" as="targetPoint" />
          </mxGeometry>
        </mxCell>
        <mxCell id="OwlcNEEsp9JzeRuenH69-18" value="" style="endArrow=none;html=1;rounded=0;exitX=1;exitY=0.5;exitDx=0;exitDy=0;entryX=0;entryY=0.5;entryDx=0;entryDy=0;" edge="1" parent="1" source="OwlcNEEsp9JzeRuenH69-12" target="OwlcNEEsp9JzeRuenH69-10">
          <mxGeometry width="50" height="50" relative="1" as="geometry">
            <mxPoint x="1020" y="1030" as="sourcePoint" />
            <mxPoint x="1070" y="980" as="targetPoint" />
          </mxGeometry>
        </mxCell>
        <mxCell id="OwlcNEEsp9JzeRuenH69-19" value="" style="endArrow=none;html=1;rounded=0;exitX=1;exitY=0.5;exitDx=0;exitDy=0;entryX=0;entryY=0.5;entryDx=0;entryDy=0;" edge="1" parent="1" source="OwlcNEEsp9JzeRuenH69-12" target="OwlcNEEsp9JzeRuenH69-9">
          <mxGeometry width="50" height="50" relative="1" as="geometry">
            <mxPoint x="1020" y="1030" as="sourcePoint" />
            <mxPoint x="1070" y="980" as="targetPoint" />
          </mxGeometry>
        </mxCell>
        <mxCell id="OwlcNEEsp9JzeRuenH69-20" value="" style="endArrow=none;html=1;rounded=0;exitX=1;exitY=0.5;exitDx=0;exitDy=0;entryX=0;entryY=0.5;entryDx=0;entryDy=0;" edge="1" parent="1" source="OwlcNEEsp9JzeRuenH69-6" target="szYzNGDYwFDyFf7zRYBR-85">
          <mxGeometry width="50" height="50" relative="1" as="geometry">
            <mxPoint x="470" y="860" as="sourcePoint" />
            <mxPoint x="570" y="1040" as="targetPoint" />
          </mxGeometry>
        </mxCell>
        <mxCell id="OwlcNEEsp9JzeRuenH69-21" value="Status" style="html=1;overflow=block;blockSpacing=1;whiteSpace=wrap;ellipse;fontSize=12;fontFamily=Verdana;spacing=3.8;strokeColor=#000000;rounded=1;absoluteArcSize=1;arcSize=9;fillColor=#FFFFFF;strokeWidth=NaN;lucidId=GyZ-moyf~d34;" vertex="1" parent="1">
          <mxGeometry x="350" y="983" width="110" height="50" as="geometry" />
        </mxCell>
        <mxCell id="OwlcNEEsp9JzeRuenH69-22" value="Description" style="html=1;overflow=block;blockSpacing=1;whiteSpace=wrap;ellipse;fontSize=12;fontFamily=Verdana;spacing=3.8;strokeColor=#000000;rounded=1;absoluteArcSize=1;arcSize=9;fillColor=#FFFFFF;strokeWidth=NaN;lucidId=GyZ-moyf~d34;" vertex="1" parent="1">
          <mxGeometry x="350" y="1043" width="110" height="50" as="geometry" />
        </mxCell>
        <mxCell id="OwlcNEEsp9JzeRuenH69-23" value="&lt;u&gt;Vendor&#39;s Part Number&lt;/u&gt;" style="html=1;overflow=block;blockSpacing=1;whiteSpace=wrap;ellipse;fontSize=12;fontFamily=Verdana;spacing=3.8;strokeColor=#000000;rounded=1;absoluteArcSize=1;arcSize=9;fillColor=#FFFFFF;strokeWidth=NaN;lucidId=GyZ-moyf~d34;" vertex="1" parent="1">
          <mxGeometry x="350" y="1103" width="110" height="50" as="geometry" />
        </mxCell>
        <mxCell id="OwlcNEEsp9JzeRuenH69-24" value="Unit Price" style="html=1;overflow=block;blockSpacing=1;whiteSpace=wrap;ellipse;fontSize=12;fontFamily=Verdana;spacing=3.8;strokeColor=#000000;rounded=1;absoluteArcSize=1;arcSize=9;fillColor=#FFFFFF;strokeWidth=NaN;lucidId=GyZ-moyf~d34;" vertex="1" parent="1">
          <mxGeometry x="350" y="1163" width="110" height="50" as="geometry" />
        </mxCell>
        <mxCell id="OwlcNEEsp9JzeRuenH69-25" value="Quantity" style="html=1;overflow=block;blockSpacing=1;whiteSpace=wrap;ellipse;fontSize=12;fontFamily=Verdana;spacing=3.8;strokeColor=#000000;rounded=1;absoluteArcSize=1;arcSize=9;fillColor=#FFFFFF;strokeWidth=NaN;lucidId=GyZ-moyf~d34;" vertex="1" parent="1">
          <mxGeometry x="350" y="1233" width="110" height="50" as="geometry" />
        </mxCell>
        <mxCell id="OwlcNEEsp9JzeRuenH69-26" value="Total Cost" style="html=1;overflow=block;blockSpacing=1;whiteSpace=wrap;ellipse;fontSize=12;fontFamily=Verdana;spacing=3.8;strokeColor=#000000;rounded=1;absoluteArcSize=1;arcSize=9;fillColor=#FFFFFF;strokeWidth=NaN;lucidId=GyZ-moyf~d34;" vertex="1" parent="1">
          <mxGeometry x="350" y="1303" width="110" height="50" as="geometry" />
        </mxCell>
        <mxCell id="OwlcNEEsp9JzeRuenH69-29" value="" style="endArrow=none;html=1;rounded=0;entryX=0;entryY=0.5;entryDx=0;entryDy=0;exitX=1;exitY=0.5;exitDx=0;exitDy=0;" edge="1" parent="1" source="OwlcNEEsp9JzeRuenH69-21" target="OwlcNEEsp9JzeRuenH69-2">
          <mxGeometry width="50" height="50" relative="1" as="geometry">
            <mxPoint x="460" y="1200" as="sourcePoint" />
            <mxPoint x="490" y="1130" as="targetPoint" />
          </mxGeometry>
        </mxCell>
        <mxCell id="OwlcNEEsp9JzeRuenH69-31" value="" style="endArrow=none;html=1;rounded=0;entryX=0;entryY=0.5;entryDx=0;entryDy=0;exitX=1;exitY=0.5;exitDx=0;exitDy=0;" edge="1" parent="1" source="OwlcNEEsp9JzeRuenH69-26" target="OwlcNEEsp9JzeRuenH69-2">
          <mxGeometry width="50" height="50" relative="1" as="geometry">
            <mxPoint x="520" y="1290" as="sourcePoint" />
            <mxPoint x="570" y="1240" as="targetPoint" />
          </mxGeometry>
        </mxCell>
        <mxCell id="OwlcNEEsp9JzeRuenH69-32" value="" style="endArrow=none;html=1;rounded=0;entryX=0;entryY=0.5;entryDx=0;entryDy=0;exitX=1;exitY=0.5;exitDx=0;exitDy=0;" edge="1" parent="1" source="OwlcNEEsp9JzeRuenH69-25" target="OwlcNEEsp9JzeRuenH69-2">
          <mxGeometry width="50" height="50" relative="1" as="geometry">
            <mxPoint x="520" y="1290" as="sourcePoint" />
            <mxPoint x="570" y="1240" as="targetPoint" />
          </mxGeometry>
        </mxCell>
        <mxCell id="OwlcNEEsp9JzeRuenH69-33" value="" style="endArrow=none;html=1;rounded=0;entryX=0;entryY=0.5;entryDx=0;entryDy=0;exitX=1;exitY=0.5;exitDx=0;exitDy=0;" edge="1" parent="1" source="OwlcNEEsp9JzeRuenH69-24" target="OwlcNEEsp9JzeRuenH69-2">
          <mxGeometry width="50" height="50" relative="1" as="geometry">
            <mxPoint x="520" y="1290" as="sourcePoint" />
            <mxPoint x="570" y="1240" as="targetPoint" />
          </mxGeometry>
        </mxCell>
        <mxCell id="OwlcNEEsp9JzeRuenH69-34" value="" style="endArrow=none;html=1;rounded=0;entryX=0;entryY=0.5;entryDx=0;entryDy=0;exitX=1;exitY=0.5;exitDx=0;exitDy=0;" edge="1" parent="1" source="OwlcNEEsp9JzeRuenH69-23" target="OwlcNEEsp9JzeRuenH69-2">
          <mxGeometry width="50" height="50" relative="1" as="geometry">
            <mxPoint x="520" y="1290" as="sourcePoint" />
            <mxPoint x="570" y="1240" as="targetPoint" />
          </mxGeometry>
        </mxCell>
        <mxCell id="OwlcNEEsp9JzeRuenH69-35" value="" style="endArrow=none;html=1;rounded=0;entryX=0;entryY=0.5;entryDx=0;entryDy=0;exitX=1;exitY=0.5;exitDx=0;exitDy=0;" edge="1" parent="1" source="OwlcNEEsp9JzeRuenH69-22" target="OwlcNEEsp9JzeRuenH69-2">
          <mxGeometry width="50" height="50" relative="1" as="geometry">
            <mxPoint x="520" y="1290" as="sourcePoint" />
            <mxPoint x="570" y="1240" as="targetPoint" />
          </mxGeometry>
        </mxCell>
        <mxCell id="OwlcNEEsp9JzeRuenH69-36" value="&lt;font color=&quot;#6666ff&quot;&gt;Done by Er Ning&lt;/font&gt;&lt;div&gt;&lt;font color=&quot;#6666ff&quot;&gt;10/09/2024&lt;/font&gt;&lt;/div&gt;&lt;div&gt;&lt;font color=&quot;#6666ff&quot;&gt;Draft stage&lt;/font&gt;&lt;/div&gt;" style="text;html=1;align=center;verticalAlign=middle;resizable=0;points=[];autosize=1;strokeColor=none;fillColor=none;" vertex="1" parent="1">
          <mxGeometry x="117.5" y="120" width="110" height="60" as="geometry" />
        </mxCell>
      </root>
    </mxGraphModel>
  </diagram>
</mxfile>
